<svg version="1.2" xmlns="http://www.w3.org/2000/svg" viewBox="0 0 1500 378" width="200" height="50">
	<title>logo-no-background-svg</title>
	<style>
		.s0 { fill: #ffffff } 
		.s1 { fill: #293040 } 
	</style>
	<g id="Layer">
		<g id="Layer">
			<g id="tight-bounds">
				<g id="Layer">
					<g id="Layer">
						<g id="Layer">
							<g id="Layer">
								<g id="Layer">
									<g id="textblocktransform">
										<g id="textblock">
											<g id="Layer">
												<g id="Layer">
													<path id="Layer" class="s0" d="m0 0h1498.2v374.7h-1498.2z"/>
													<g id="Layer">
														<g id="Layer">
															<path id="text-0" fill-rule="evenodd" class="s1" d="m177.8 89.2q36.4 0 59.9 14.8 23.5 14.7 24 43.7v3.3h-57.1v-1.1q0-8.3-6.1-13.8-6.1-5.5-18.5-5.5-12.2 0-18.6 3.6-6.5 3.5-6.5 8.8 0 7.4 8.8 11 8.8 3.6 28.4 7.4 23 4.7 37.8 9.8 14.7 5.1 25.8 16.7 11 11.6 11.3 31.4 0 33.6-22.8 49.9-22.8 16.2-60.9 16.2-44.4 0-69.1-14.8-24.8-14.9-24.8-52.7h57.7q0 14.3 7.5 19.1 7.4 4.9 23.2 4.9 11.6 0 19.2-2.5 7.6-2.5 7.6-10.2 0-6.9-8.4-10.3-8.5-3.5-27.5-7.3-23.2-5-38.4-10.4-15.2-5.3-26.5-17.7-11.3-12.4-11.3-33.6 0-31.2 24.2-45.9 24.1-14.8 61.1-14.8zm308.7 192.9h-61v-71.9h-67.1v71.9h-61v-189.6h61v69.2h67.1v-69.2h61zm135.3-192.8q49.2 0 76 25 26.7 25.1 26.7 73.1 0 47.9-26.7 73-26.8 25-76 25-49.1 0-75.8-24.9-26.6-24.9-26.6-73.1 0-48.3 26.6-73.2 26.7-24.9 75.8-24.9zm0 45.4q-19.6 0-29.8 11.9-10.2 11.8-10.2 31.9v17.7q0 20.1 10.2 31.9 10.2 11.9 29.8 11.9 19.6 0 30-11.9 10.3-11.8 10.3-31.9v-17.7q0-20.1-10.3-31.9-10.4-11.9-30-11.9zm242.1-42.1q17.7 0 31.5 8.1 13.8 8.1 21.6 22.3 7.7 14.2 7.7 31.8v3.6q0 17.7-7.7 32-7.8 14.3-21.6 22.4-13.8 8.2-31.5 8.2h-45.5v61.1h-61.1v-189.5zm-45.5 44.9v39.1h25.1q9.7 0 14.5-5 4.8-4.9 4.8-13.5v-2.2q0-8.8-4.8-13.6-4.8-4.8-14.5-4.8zm141.4 144.6h-58.5v-54.8h58.5zm127.6-192.9q42.2 0 66.8 21.1 24.6 21.1 24.6 60.2h-58.3q0-16.5-8.7-26.2-8.7-9.6-24.7-9.6-18.5 0-27.2 11.6-8.7 11.5-8.7 32.2v17.6q0 20.4 8.7 32.1 8.7 11.7 26.6 11.7 17.7 0 26.8-9 9.1-9.1 9.1-25.7h56.4q0 38.9-23.9 59.5-23.9 20.7-67.5 20.7-48.6 0-73.6-24.8-25-24.8-25-73.3 0-48.5 25-73.3 25-24.8 73.6-24.8zm218.7 0q49.1 0 75.9 25.1 26.8 25.1 26.8 73 0 48-26.8 73-26.8 25.1-75.9 25.1-49.2 0-75.9-25-26.6-24.9-26.6-73.1 0-48.2 26.6-73.2 26.7-24.9 75.9-24.9zm0 45.5q-19.6 0-29.8 11.8-10.3 11.9-10.3 32v17.6q0 20.2 10.3 32 10.2 11.8 29.8 11.8 19.6 0 29.9-11.8 10.4-11.8 10.4-32v-17.6q0-20.1-10.4-32-10.3-11.8-29.9-11.8z"/>
														</g>
													</g>
												</g>
											</g>
										</g>
									</g>
								</g>
							</g>
						</g>
					</g>
				</g>
			</g>
		</g>
	</g>
</svg>
